<?xml version="1.0" encoding="UTF-8"?>
<svg width="263px" height="150px" viewBox="0 0 263 150" version="1.1" xmlns="http://www.w3.org/2000/svg" xmlns:xlink="http://www.w3.org/1999/xlink">
    <!-- Generator: Sketch 46 (44423) - http://www.bohemiancoding.com/sketch -->
    <title>Group</title>
    <desc>Created with Sketch.</desc>
    <defs></defs>
    <g id="Page-1" stroke="none" stroke-width="1" fill="none" fill-rule="evenodd">
        <g id="Desktop-HD" transform="translate(-184.000000, -375.000000)" fill="#EE6D45">
            <g id="Group" transform="translate(184.000000, 337.000000)">
               
                    <g id="Row-2" transform="translate(0.000000, 38.244933)">
                        <g id="Group-1">
                          
                                <path d="M16.1237247,32.7852296 C7.28071659,32.7852296 0.0824948336,25.5241901 0.0824948336,16.5849749 C0.0824948336,7.65755184 7.28071659,0.386931156 16.1237247,0.386931156 C24.9718432,0.386931156 32.1751752,7.65755184 32.1751752,16.5849749 C32.1751752,25.5241901 24.9718432,32.7852296 16.1237247,32.7852296 M16.1237247,2.61344358 C8.49842794,2.61344358 2.28649397,8.8868874 2.28649397,16.5849749 C2.28649397,24.2867474 8.49842794,30.5601912 16.1237247,30.5601912 C23.7548618,30.5601912 29.9660658,24.2867474 29.9660658,16.5849749 C29.9660658,8.8868874 23.7548618,2.61344358 16.1237247,2.61344358" id="Fill-1"></path>
                                <path d="M16.1237247,26.7535257 C10.5724795,26.7535257 6.06373529,22.1899491 6.06373529,16.5849749 C6.06373529,10.9807377 10.5724795,6.42084616 16.1237247,6.42084616 C21.6830005,6.42084616 26.1961249,10.9807377 26.1961249,16.5849749 C26.1961249,22.1899491 21.6830005,26.7535257 16.1237247,26.7535257 M16.1237247,8.64441054 C11.7953011,8.64441054 8.26116404,12.2085992 8.26116404,16.5849749 C8.26116404,20.9657726 11.7953011,24.5248022 16.1237247,24.5248022 C20.4587187,24.5248022 23.9921258,20.9657726 23.9921258,16.5849749 C23.9921258,12.2085992 20.4587187,8.64441054 16.1237247,8.64441054" id="Fill-2"></path>
                                <path d="M16.1237247,20.7196107 C13.8708127,20.7196107 12.031835,18.8667632 12.031835,16.5849749 C12.031835,14.3031866 13.8708127,12.4628683 16.1237247,12.4628683 C18.3839372,12.4628683 20.2214548,14.3031866 20.2214548,16.5849749 C20.2214548,18.8667632 18.3839372,20.7196107 16.1237247,20.7196107 M16.1237247,14.6864327 C15.087064,14.6864327 14.2409444,15.5325221 14.2409444,16.5849749 C14.2409444,17.6293205 15.087064,18.4953093 16.1237247,18.4953093 C17.1669558,18.4953093 18.0174557,17.6293205 18.0174557,16.5849749 C18.0174557,15.5325221 17.1669558,14.6864327 16.1237247,14.6864327" id="Fill-3"></path>
                          
                        </g>
                    </g>
                
            </g>
        </g>
    </g>
</svg>